# xmcd
#
# Track frame offsets: 
#        150
#        22460
#        33525
#        44612
#        56097
#        70240
#        82857
#        95430
#        109280
#        121865
#
# Disc length: 1798 seconds
#
# Revision: 4
# Processed by: cddbd v1.5.2PL0 Copyright (c) Steve Scherf et al.
# Submitted via: ExactAudioCopyFreeDBPlugin 1.0
#
DISCID=8b07040a
DTITLE=Various Artist - The Monkey Time and Other R&B Hits
DYEAR=1991
DGENRE=Rhythm and Blues
TTITLE0=Louis Jordan - Blue Light Boogie
TTITLE1=Little Joe and The Thrillers - Peanuts
TTITLE2=Screaming Jay Hawkins - I Put a Spell On You
TTITLE3=Roy Hamilton - Don't Let Go
TTITLE4=Ray Bryant - The Madison Time, Part I (Dance Calls by Eddie Mo
TTITLE4=rrison)
TTITLE5=Big Maybelle - Whole Lotta Shakin' Goin' On
TTITLE6=Major Lance - The Monkey Time
TTITLE7=Johnny Ray - Cry
TTITLE8=Roy Hamilton - You Can Have Her
TTITLE9=Larry Williams and Johnny Watson - Mercy, Mercy, Mercy
EXTD=
EXTT0=
EXTT1=
EXTT2=
EXTT3=
EXTT4=
EXTT5=
EXTT6=
EXTT7=
EXTT8=
EXTT9=
PLAYORDER=
